<?xml version="1.0" encoding="utf-8"?>
<!-- Generator: Adobe Illustrator 25.2.3, SVG Export Plug-In . SVG Version: 6.00 Build 0)  -->
<svg version="1.1" id="Layer_1" xmlns="http://www.w3.org/2000/svg" xmlns:xlink="http://www.w3.org/1999/xlink" x="0px" y="0px"
	 viewBox="0 0 500 500" style="enable-background:new 0 0 500 500;" xml:space="preserve">
<style type="text/css">
	.st0{fill:#ffffff;}
</style>
<g id="2DoTrack" transform="matrix(1.1493764024444943,0,0,1.1493764024444943,27.529397569167823,-19.077164886740317)">
	<g transform="translate(0,-952.36218)">
		<path class="st0" d="M92.17,1039.28c-14.68,0-26.56,11.89-26.56,26.56v2.3v2.21v96.78v2.21c0,14.67,11.9,26.47,26.56,26.47h62.68
			l-3.68,16.36h-7.9c-3.98,0-7.26,3.19-7.26,7.17v9.19c0,3.98,3.28,7.26,7.26,7.26h68.38c3.98,0,7.26-3.28,7.26-7.26v-9.19
			c0-3.98-3.28-7.17-7.26-7.17h-7.9l-3.68-16.36h36.76c15.47,12.31,37.89,11.81,52.76-1.56l28.12,28.13c0.86,0.86,2.26,0.86,3.12,0
			c0.86-0.86,0.86-2.26,0-3.12l-28.12-28.12c14.35-16,13.83-40.69-1.56-56.06c-0.59-0.59-1.22-1.11-1.84-1.65v-65.26v-2.21v-0.09
			c0-14.67-11.89-26.56-26.56-26.56H93.46L92.17,1039.28L92.17,1039.28z M92.17,1043.69h170.59c12.3,0,22.15,9.85,22.15,22.15v0.09
			H70.02v-0.09C70.02,1053.54,79.87,1043.69,92.17,1043.69L92.17,1043.69z M70.02,1070.34h214.89v59.56
			c-14.72-9.81-34.5-8.97-48.44,2.39c-1.04,0.85-2.06,1.79-3.03,2.76c-0.97,0.97-1.91,2-2.76,3.03c-0.03,0.03-0.07,0.06-0.09,0.09
			c-0.02,0.03,0.02,0.07,0,0.09c-0.85,1.05-1.66,2.11-2.39,3.22c-0.04,0.06-0.05,0.13-0.09,0.18c-0.12,0.19-0.25,0.36-0.37,0.55
			c-0.51,0.81-1.02,1.64-1.47,2.48c-0.04,0.08-0.05,0.19-0.09,0.28c-0.56,1.07-1.1,2.12-1.56,3.22c-0.46,1.11-0.83,2.26-1.19,3.4
			c-0.02,0.06-0.07,0.12-0.09,0.18c-0.06,0.18-0.13,0.37-0.18,0.55c-0.31,1.04-0.52,2.16-0.74,3.22c-0.65,3.09-0.91,6.23-0.83,9.38
			H70.03L70.02,1070.34L70.02,1070.34z M233.08,1082.38c-6.03,0-10.85,4.91-10.85,10.94c0,2.22,0.62,4.24,1.75,5.97l-23.44,15.81
			c-1.93-1.68-4.34-2.85-7.08-2.85c-1.8,0-3.55,0.51-5.06,1.29l-16.27-11.95c0.67-1.4,1.01-3.03,1.01-4.69
			c0-6.03-4.91-10.94-10.94-10.94s-11.03,4.91-11.03,10.94c0,1.51,0.36,3.02,0.92,4.32l-40.07,22.98c-1.89-1.52-4.21-2.57-6.8-2.57
			c-6.03,0-11.03,5-11.03,11.03s5,10.94,11.03,10.94s10.94-4.91,10.94-10.94c0-1.82-0.4-3.54-1.19-5.05l39.61-22.79
			c1.98,1.87,4.7,3.03,7.63,3.03c2.76,0,5.23-1.07,7.17-2.76l15.53,11.31c-1.53,1.89-2.48,4.29-2.48,6.89
			c0,6.03,5,10.85,11.03,10.85s10.94-4.82,10.94-10.85c0-1.69-0.41-3.25-1.1-4.69l23.81-16.08c1.72,1.15,3.76,1.75,5.97,1.75
			c6.03,0,11.03-4.91,11.03-10.94C244.11,1087.29,239.11,1082.38,233.08,1082.38L233.08,1082.38z M233.08,1086.8
			c3.65,0,6.62,2.88,6.62,6.53c0,3.64-2.97,6.53-6.62,6.53s-6.53-2.88-6.53-6.53C226.55,1089.68,229.43,1086.8,233.08,1086.8z
			 M162.21,1090.38c3.65,0,6.53,2.88,6.53,6.53s-2.88,6.53-6.53,6.53s-6.62-2.88-6.62-6.53S158.56,1090.38,162.21,1090.38z
			 M193.46,1116.67c3.65,0,6.53,2.97,6.53,6.62c0,3.64-2.88,6.53-6.53,6.53c-3.65,0-6.62-2.88-6.62-6.53
			C186.84,1119.64,189.81,1116.67,193.46,1116.67z M105.23,1126.13c3.65,0,6.53,2.88,6.53,6.53c0,3.64-2.88,6.62-6.53,6.62
			s-6.62-2.97-6.62-6.62C98.61,1129.02,101.58,1126.13,105.23,1126.13z M260.83,1127.6c1.07-0.04,2.15-0.05,3.22,0
			c0.06,0,0.12,0,0.18,0c7.68,0.41,15.27,3.22,21.51,8.46c0.8,0.67,1.55,1.37,2.3,2.11c14.24,14.23,14.24,37.24,0,51.47
			c-12.78,12.76-32.64,14-46.88,3.86l-2.02-1.56c-0.9-0.74-1.75-1.57-2.57-2.39c-4.43-4.42-7.52-9.67-9.19-15.26
			c-0.01-0.03,0.01-0.06,0-0.09c-0.33-1.09-0.61-2.19-0.83-3.31c-0.01-0.03,0.01-0.06,0-0.09c-0.46-2.38-0.66-4.76-0.64-7.17
			c0.01-0.95,0.1-1.9,0.18-2.85c0.07-0.85,0.14-1.73,0.28-2.57c0.06-0.4,0.11-0.8,0.18-1.19c0.08-0.43,0.18-0.86,0.28-1.29
			c0.35-1.52,0.83-3.03,1.38-4.5c0.26-0.71,0.52-1.42,0.83-2.11c0.21-0.47,0.41-0.92,0.64-1.38c0.02-0.04,0.07-0.06,0.09-0.09
			c0.3-0.59,0.59-1.17,0.92-1.75c0.38-0.65,0.78-1.3,1.19-1.93c0.22-0.34,0.5-0.68,0.74-1.01c0.39-0.55,0.77-1.12,1.19-1.65
			c0.03-0.03,0.07-0.06,0.09-0.09c0.84-1.04,1.7-2.07,2.67-3.03c0.9-0.9,1.79-1.69,2.76-2.48c0.66-0.54,1.34-0.99,2.02-1.47
			c0.24-0.17,0.49-0.39,0.74-0.55c0.26-0.18,0.56-0.29,0.83-0.46c0.77-0.49,1.5-0.96,2.3-1.38c0.9-0.48,1.83-0.89,2.76-1.29
			C252.09,1128.78,256.42,1127.78,260.83,1127.6L260.83,1127.6z M70.02,1169.33h151.84c1.07,7.98,4.5,15.73,10.29,22.06H92.17
			C79.86,1191.39,70.02,1181.63,70.02,1169.33L70.02,1169.33z M281.42,1180.91c-0.53,0.07-1.02,0.33-1.38,0.74
			c-9.83,9.82-25.74,9.82-35.57,0c-0.78-0.75-1.98-0.83-2.85-0.18c-0.98,0.72-1.19,2.1-0.47,3.08c0.06,0.08,0.12,0.15,0.19,0.23
			c11.52,11.51,30.3,11.51,41.82,0c0.93-0.79,1.04-2.18,0.25-3.11C282.92,1181.09,282.17,1180.81,281.42,1180.91L281.42,1180.91z
			 M159.36,1195.8h36.21l3.68,16.36h-43.56L159.36,1195.8z M143.28,1216.58h68.38c1.61,0,2.85,1.15,2.85,2.76v9.19
			c0,1.61-1.24,2.85-2.85,2.85h-68.38c-1.61,0-2.85-1.24-2.85-2.85v-9.19C140.43,1217.72,141.67,1216.58,143.28,1216.58z"/>
	</g>
</g>
<g id="2DoTrack" transform="matrix(1.2084695436631254,0,0,1.2084695436631254,-1.0560163422024345,90.96570873762555)">
	<path class="st0" d="M2.95,242.88c-0.59,0-1.1-0.22-1.53-0.65c-0.43-0.43-0.61-0.96-0.53-1.59c0.35-3.84,2.04-6.98,5.06-9.41
		c2.94-2.35,6.47-3.53,10.59-3.53c4.67,0,8.39,1.27,11.18,3.82c2.78,2.55,4.18,5.86,4.18,9.94c0,2.08-0.61,4.07-1.82,5.97
		c-1.22,1.9-2.61,3.52-4.18,4.85c-1.73,1.53-3.45,2.88-5.18,4.06c-0.78,0.51-1.9,1.29-3.35,2.35l-1.65,1.18
		c-1.41,1.06-2.63,2.1-3.65,3.12h17.65c0.59,0,1.08,0.21,1.47,0.62c0.39,0.41,0.59,0.89,0.59,1.44v4.24c0,0.55-0.2,1.03-0.59,1.44
		c-0.39,0.41-0.88,0.62-1.47,0.62H3.48c-0.55,0-1.03-0.21-1.44-0.62c-0.41-0.41-0.62-0.89-0.62-1.44v-2.41c0-2.43,0.67-4.57,2-6.41
		c1.22-1.8,2.69-3.43,4.41-4.88c1.88-1.61,3.71-2.98,5.47-4.12c2.12-1.45,3.84-2.69,5.18-3.71c1.49-1.1,2.75-2.27,3.76-3.53
		c0.75-0.86,1.12-1.8,1.12-2.82c0-1.69-0.51-2.96-1.53-3.82c-1.1-0.98-2.76-1.47-5-1.47s-4.02,0.45-5.35,1.35
		c-1.14,0.78-1.82,2-2.06,3.65c-0.08,0.51-0.31,0.93-0.71,1.26c-0.39,0.33-0.84,0.5-1.35,0.5C7.36,242.88,2.95,242.88,2.95,242.88z
		 M88.63,229.23c2.39,0.9,4.55,2.35,6.47,4.35c4.12,4.16,6.18,9.46,6.18,15.91c0,6.45-2.06,11.77-6.18,15.97
		c-1.92,2-4.08,3.45-6.47,4.35c-2.47,1.02-5,1.53-7.59,1.53H64.4c-0.55,0-1.03-0.21-1.44-0.62c-0.41-0.41-0.62-0.89-0.62-1.44v-4.24
		c0-0.59,0.21-1.09,0.62-1.5c0.41-0.41,0.89-0.62,1.44-0.62h16.47c3.49,0,6.32-1.27,8.5-3.82s3.26-5.75,3.26-9.59
		c0-3.84-1.09-7.04-3.26-9.59c-2.18-2.55-5.01-3.82-8.5-3.82H64.4c-0.55,0-1.03-0.21-1.44-0.62c-0.41-0.41-0.62-0.91-0.62-1.5v-4.24
		c0-0.55,0.21-1.03,0.62-1.44c0.41-0.41,0.89-0.62,1.44-0.62h16.65C83.63,227.7,86.16,228.21,88.63,229.23z M130.62,228.17
		c0.47,0.39,0.71,0.92,0.71,1.59v4.41c0,0.51-0.15,0.95-0.44,1.32c-0.29,0.37-0.7,0.62-1.21,0.74c-2.51,0.51-4.65,1.71-6.41,3.59
		c-2.39,2.51-3.59,5.77-3.59,9.79s1.2,7.3,3.59,9.85c1.76,1.84,3.9,3.02,6.41,3.53c0.51,0.12,0.91,0.36,1.21,0.74
		c0.29,0.37,0.44,0.81,0.44,1.32v4.41c0,0.63-0.24,1.16-0.71,1.59c-0.43,0.31-0.88,0.47-1.35,0.47h-0.35
		c-4.55-0.75-8.45-2.8-11.71-6.18c-4.08-4.2-6.12-9.42-6.12-15.68s2.04-11.52,6.12-15.79c3.18-3.29,7.08-5.33,11.71-6.12
		C129.54,227.64,130.11,227.78,130.62,228.17z M149.09,233.88c4.08,4.27,6.12,9.54,6.12,15.79c0,6.25-2.04,11.48-6.12,15.68
		c-3.25,3.37-7.16,5.43-11.71,6.18h-0.35c-0.47,0-0.92-0.16-1.35-0.47c-0.47-0.43-0.71-0.96-0.71-1.59v-4.41
		c0-0.51,0.15-0.95,0.44-1.32c0.29-0.37,0.7-0.62,1.21-0.74c2.51-0.51,4.65-1.69,6.41-3.53c2.39-2.55,3.59-5.83,3.59-9.85
		c0-4.02-1.2-7.28-3.59-9.79c-1.76-1.88-3.9-3.08-6.41-3.59c-0.51-0.12-0.91-0.36-1.21-0.74c-0.29-0.37-0.44-0.81-0.44-1.32v-4.41
		c0-0.67,0.25-1.2,0.74-1.59c0.49-0.39,1.05-0.53,1.68-0.41C142.01,228.55,145.92,230.59,149.09,233.88z M189.13,227.7
		c0.59,0,1.09,0.21,1.5,0.62c0.41,0.41,0.62,0.91,0.62,1.5v4.29c0,0.59-0.21,1.09-0.62,1.5s-0.91,0.62-1.5,0.62h-6.06
		c-0.55,0-1.03-0.21-1.44-0.62s-0.62-0.91-0.62-1.5v-4.29c0-0.59,0.21-1.09,0.62-1.5c0.41-0.41,0.89-0.62,1.44-0.62H189.13z
		 M215.42,227.7c0.55,0,1.03,0.21,1.44,0.62c0.41,0.41,0.62,0.91,0.62,1.5v4.29c0,0.59-0.21,1.09-0.62,1.5s-0.89,0.62-1.44,0.62
		H203.6v33.41c0,0.55-0.21,1.03-0.62,1.44c-0.41,0.41-0.89,0.62-1.44,0.62h-4.53c-0.59,0-1.09-0.21-1.5-0.62
		c-0.41-0.41-0.62-0.89-0.62-1.44v-39.82c0-0.59,0.21-1.09,0.62-1.5c0.41-0.41,0.91-0.62,1.5-0.62
		C197.01,227.7,215.42,227.7,215.42,227.7z M256.12,254.47l8.88,13.59c0.43,0.71,0.45,1.41,0.06,2.12c-0.16,0.31-0.4,0.57-0.74,0.76
		c-0.33,0.2-0.68,0.29-1.03,0.29h-5.35c-0.35,0-0.69-0.09-1-0.26s-0.55-0.4-0.71-0.68l-8.94-14.18h-10.47v13.06
		c0,0.55-0.21,1.03-0.62,1.44c-0.41,0.41-0.89,0.62-1.44,0.62h-4.47c-0.55,0-1.03-0.21-1.44-0.62c-0.41-0.41-0.62-0.89-0.62-1.44
		v-19.35c0-0.55,0.21-1.03,0.62-1.44c0.41-0.41,0.89-0.62,1.44-0.62h18.12c3.45,0,5.75-0.98,6.88-2.94
		c0.39-0.63,0.59-1.53,0.59-2.71c0-1.84-0.61-3.29-1.82-4.35c-1.25-1.14-3.06-1.71-5.41-1.71h-18.35c-0.55,0-1.03-0.21-1.44-0.62
		c-0.41-0.41-0.62-0.89-0.62-1.44v-4.24c0-0.55,0.21-1.03,0.62-1.44c0.41-0.41,0.89-0.62,1.44-0.62h18.88c4.59,0,8.25,1.29,11,3.88
		c2.86,2.59,4.29,6.1,4.29,10.53c0,2.86-0.63,5.3-1.88,7.32c-1.25,2.02-3.08,3.56-5.47,4.62L256.12,254.47z M315.99,268.47
		c0.27,0.63,0.21,1.26-0.21,1.91c-0.41,0.65-0.97,0.97-1.68,0.97h-39.18c-0.35,0-0.69-0.09-1-0.26c-0.31-0.18-0.55-0.4-0.71-0.68
		c-0.43-0.63-0.49-1.27-0.18-1.94l1.82-4.29c0.16-0.39,0.41-0.71,0.76-0.94c0.35-0.24,0.73-0.35,1.12-0.35h27.41l-9.65-23.06
		l-7.88,18.82c-0.16,0.39-0.4,0.7-0.74,0.91c-0.33,0.22-0.72,0.32-1.15,0.32h-4.94c-0.75,0-1.33-0.31-1.76-0.94
		c-0.16-0.27-0.25-0.59-0.29-0.94c-0.04-0.35,0-0.69,0.12-1l11.94-28c0.16-0.39,0.4-0.71,0.74-0.94c0.33-0.24,0.72-0.35,1.15-0.35
		h5.65c0.43,0,0.81,0.12,1.15,0.35s0.58,0.55,0.74,0.94L315.99,268.47z M348.09,236.12c-0.51-0.08-0.93-0.31-1.26-0.71
		c-0.33-0.39-0.5-0.84-0.5-1.35v-4.29c0-0.67,0.24-1.2,0.71-1.59c0.47-0.39,1.02-0.55,1.65-0.47c3.37,0.55,6.37,1.75,9,3.59
		c3.41,2.47,5.82,5.75,7.24,9.82c0.24,0.67,0.16,1.29-0.24,1.88c-0.39,0.59-0.96,0.88-1.71,0.88h-4.71c-0.43,0-0.82-0.11-1.18-0.32
		c-0.35-0.22-0.61-0.52-0.76-0.91c-0.86-2.04-2.18-3.67-3.94-4.88C351.01,236.9,349.58,236.35,348.09,236.12z M362.97,255.64
		c0.75,0,1.31,0.29,1.71,0.88c0.39,0.59,0.47,1.22,0.24,1.88c-1.41,4.08-3.82,7.35-7.24,9.82c-2.63,1.84-5.63,3.04-9,3.59h-0.29
		c-0.55,0-1-0.18-1.35-0.53c-0.47-0.35-0.71-0.86-0.71-1.53v-4.29c0-0.51,0.16-0.96,0.47-1.35c0.31-0.39,0.73-0.63,1.24-0.71
		c1.65-0.24,3.1-0.78,4.35-1.65c1.76-1.22,3.08-2.84,3.94-4.88c0.16-0.39,0.41-0.7,0.76-0.91c0.35-0.22,0.75-0.32,1.18-0.32H362.97
		L362.97,255.64z M341.92,228.41c0.51,0.39,0.76,0.92,0.76,1.59v4.59c0,0.43-0.15,0.83-0.44,1.21c-0.29,0.37-0.66,0.64-1.09,0.79
		c-0.55,0.12-0.98,0.25-1.29,0.41c-1.57,0.71-2.9,1.67-4,2.88c-2.24,2.51-3.35,5.79-3.35,9.85s1.12,7.36,3.35,9.91
		c1.37,1.57,3.14,2.67,5.29,3.29c0.43,0.12,0.79,0.36,1.09,0.74c0.29,0.37,0.44,0.77,0.44,1.21v4.65c0,0.67-0.25,1.2-0.76,1.59
		c-0.35,0.31-0.8,0.47-1.35,0.47h-0.41c-4.2-0.9-7.75-2.94-10.65-6.12c-3.73-4.2-5.59-9.43-5.59-15.71c0-6.27,1.86-11.51,5.59-15.71
		c2.9-3.22,6.45-5.24,10.65-6.06C340.78,227.84,341.37,227.98,341.92,228.41z M414.2,268c0.24,0.27,0.37,0.61,0.41,1
		c0.04,0.39-0.03,0.76-0.21,1.12c-0.18,0.35-0.43,0.63-0.76,0.82c-0.33,0.2-0.7,0.29-1.09,0.29h-5.59c-0.35,0-0.68-0.08-0.97-0.24
		c-0.29-0.16-0.54-0.37-0.74-0.65l-14.06-20.24l-5.76,5.41v13.65c0,0.55-0.21,1.03-0.62,1.44c-0.41,0.41-0.89,0.62-1.44,0.62h-4.47
		c-0.55,0-1.03-0.21-1.44-0.62c-0.41-0.41-0.62-0.89-0.62-1.44v-16.35c0-0.63,0.22-1.12,0.65-1.47l24.59-23.06
		c0.39-0.39,0.86-0.59,1.41-0.59h6.35c0.39,0,0.76,0.12,1.12,0.35c0.35,0.24,0.61,0.55,0.76,0.94c0.16,0.39,0.2,0.79,0.12,1.21
		c-0.08,0.41-0.27,0.77-0.59,1.09l-13.76,12.94L414.2,268z M378.9,242.7c-0.55,0-1.03-0.2-1.44-0.59c-0.41-0.39-0.62-0.88-0.62-1.47
		v-10.88c0-0.55,0.21-1.03,0.62-1.44c0.41-0.41,0.89-0.62,1.44-0.62h4.47c0.55,0,1.03,0.21,1.44,0.62c0.41,0.41,0.62,0.89,0.62,1.44
		v10.88c0,0.59-0.21,1.08-0.62,1.47c-0.41,0.39-0.89,0.59-1.44,0.59H378.9z"/>
</g>
</svg>
